<?xml version="1.0" encoding="utf-8"?>
<!-- Generator: Adobe Illustrator 18.1.1, SVG Export Plug-In . SVG Version: 6.00 Build 0)  -->
<svg version="1.1" id="Layer_1" xmlns="http://www.w3.org/2000/svg" xmlns:xlink="http://www.w3.org/1999/xlink" x="0px" y="0px"
	 viewBox="0 0 160 22" enable-background="new 0 0 160 22" xml:space="preserve">
<g>
	<g>
		<path fill="#FFFFFF" d="M107.9,1.1v10.9c0,1.7,0.3,3.1,1,3.9c0.6,0.9,1.6,1.3,2.9,1.3c1.3,0,2.2-0.4,2.9-1.2c0.7-0.8,1-2,1-3.5
			V1.1h4.2v11.4c0,2.9-0.7,5.1-2.2,6.7c-1.5,1.6-3.5,2.4-6.1,2.4c-2.6,0-4.7-0.8-6.1-2.4c-1.5-1.6-2.2-3.8-2.2-6.7V1.1H107.9z"/>
		<path fill="#FFFFFF" d="M123.8,20.9V0.4h0.5L136.5,12V1.1h4.4v20.5h-0.4l-12.4-11.5v10.8H123.8z"/>
		<path fill="#FFFFFF" d="M149,20.9V5.2h-6.3V1.1H160v4.1h-6.3v15.7H149z"/>
		<polygon fill="#FFFFFF" points="94.6,1.1 94.6,8.3 87,8.3 87,12.6 94.6,12.6 94.6,20.9 99.3,20.9 99.3,1.1 		"/>
	</g>
	<path fill="#22B713" d="M18,9.9v9.6c-1.3,0.7-2.6,1.2-3.9,1.5c-1.3,0.3-2.5,0.5-3.7,0.5c-3,0-5.5-1-7.5-3c-2-2-3-4.5-3-7.5
		c0-3.1,1-5.6,3-7.6c2-2,4.6-3,7.6-3c1.2,0,2.3,0.2,3.3,0.5c1.1,0.3,2.1,0.8,3,1.4l-0.5,5c-0.9-0.9-1.8-1.6-2.7-2
		c-0.9-0.4-1.9-0.6-2.9-0.6c-1.8,0-3.2,0.6-4.4,1.8C5.4,7.6,4.8,9,4.8,10.8c0,1.9,0.6,3.4,1.7,4.6c1.1,1.2,2.6,1.8,4.3,1.8
		c0.4,0,0.8,0,1.2-0.1c0.4-0.1,0.9-0.2,1.3-0.3v-2.9L18,9.9z"/>
	<path fill="#22B713" d="M21.5,20.9V1.1h5.1c1.6,0,2.9,0.1,3.8,0.3c0.9,0.2,1.7,0.6,2.4,1.1c0.7,0.5,1.3,1.2,1.7,2
		c0.4,0.8,0.6,1.6,0.6,2.5c0,1.2-0.3,2.3-0.9,3.3c-0.6,0.9-1.5,1.7-2.7,2.2l6,8.5h-5.4l-5.3-7.8h-0.7v7.8H21.5z M26.9,4.7h-0.8v5.5
		h1c1.2,0,2.1-0.2,2.7-0.7c0.6-0.5,0.9-1.2,0.9-2.1c0-0.9-0.3-1.6-0.9-2.1C29.3,4.9,28.3,4.7,26.9,4.7z"/>
	<path fill="#22B713" d="M38.9,20.9V1.1h12.2v4.1h-7.6v3.6H50v4.1h-6.5v3.9h7.7v4.2H38.9z"/>
	<path fill="#22B713" d="M54.4,20.9V1.1h12.2v4.1H59v3.6h6.5v4.1H59v3.9h7.7v4.2H54.4z"/>
	<g>
		<polygon fill="#22B713" points="79.5,9 70.3,0.4 69.9,0.4 69.9,20.9 74.2,20.9 74.2,10.1 79.5,14.9 		"/>
		<polygon fill="#22B713" points="82.6,1.1 82.6,12 82.6,12 82.6,17.9 86.6,21.6 87,21.6 87,1.1 		"/>
	</g>
</g>
</svg>
